<svg xmlns="http://www.w3.org/2000/svg">
<defs>
<symbol id="icon-calendar" viewBox="0 0 24 24">
  <path d="M17.5,11.039c-3.584,0-6.5,2.916-6.5,6.5,0,3.563,2.916,6.461,6.5,6.461s6.5-2.916,6.5-6.5c0-3.563-2.916-6.461-6.5-6.461Zm0,11.961c-3.032,0-5.5-2.45-5.5-5.461,0-3.033,2.468-5.5,5.5-5.5s5.5,2.45,5.5,5.461c0,3.033-2.468,5.5-5.5,5.5Zm1.354-4.854c.195,.195,.195,.512,0,.707-.098,.098-.226,.146-.354,.146s-.256-.049-.354-.146l-1-1c-.094-.094-.146-.221-.146-.354v-2c0-.276,.224-.5,.5-.5s.5,.224,.5,.5v1.793l.854,.854Zm.646-16.146h-1.5V.5c0-.276-.224-.5-.5-.5s-.5,.224-.5,.5v1.5H7V.5c0-.276-.224-.5-.5-.5s-.5,.224-.5,.5v1.5h-1.5C2.019,2,0,4.019,0,6.5v13c0,2.481,2.019,4.5,4.5,4.5h6c.276,0,.5-.224,.5-.5s-.224-.5-.5-.5H4.5c-1.93,0-3.5-1.57-3.5-3.5V9H23v1.5c0,.276,.224,.5,.5,.5s.5-.224,.5-.5V6.5c0-2.481-2.019-4.5-4.5-4.5ZM1,8v-1.5c0-1.93,1.57-3.5,3.5-3.5h15c1.93,0,3.5,1.57,3.5,3.5v1.5H1Z"></path>
</symbol>
<symbol id="icon-deadline" viewBox="0 0 24 24">
<path d="m16.551,12.096c2.522-2.257,4.003-4.759,4.405-7.449.169-1.131-.165-2.281-.917-3.154-.765-.887-1.874-1.396-3.043-1.396H7.005c-1.169,0-2.279.51-3.043,1.397-.753.875-1.087,2.026-.917,3.158.405,2.699,1.884,5.198,4.401,7.444-2.517,2.246-3.996,4.746-4.401,7.444-.17,1.132.165,2.284.917,3.158.765.888,1.874,1.397,3.043,1.397h9.99c1.169,0,2.278-.509,3.043-1.396.753-.874,1.087-2.023.918-3.155-.402-2.69-1.883-5.191-4.405-7.449Zm1.972,9.298c-.384.446-.941.702-1.528.702H7.005c-.587,0-1.144-.256-1.528-.703-.378-.439-.54-.992-.456-1.556.375-2.499,1.923-4.839,4.599-6.957.24-.189.379-.479.379-.784s-.14-.595-.379-.784c-2.676-2.118-4.224-4.458-4.599-6.957-.084-.564.077-1.117.456-1.556.384-.446.941-.702,1.528-.702h9.99c.587,0,1.144.255,1.528.702.377.438.539.99.455,1.553-.373,2.488-1.92,4.831-4.601,6.962-.238.19-.377.478-.377.783s.139.593.377.783c2.681,2.132,4.229,4.474,4.601,6.962.084.563-.078,1.115-.456,1.553Zm-1.916-15.922c.125-.309.088-.659-.098-.935-.186-.275-.497-.441-.829-.441h-7.363c-.333,0-.643.166-.829.442-.186.275-.223.625-.098.933.748,1.853,2.3,3.346,3.471,4.272l.519.411c.182.145.401.216.621.216s.441-.073.623-.218l.508-.405c1.173-.933,2.728-2.432,3.475-4.276Zm-4.608,2.621c-.631-.509-1.371-1.193-1.966-1.996h3.928c-.593.798-1.331,1.484-1.962,1.996Z"></path>
</symbol>
<symbol id="icon-location-marker" viewBox="0 0 512 512">
<path d="M255.104,512.171l-14.871-12.747C219.732,482.258,40.725,327.661,40.725,214.577c0-118.398,95.981-214.379,214.379-214.379   s214.379,95.981,214.379,214.379c0,113.085-179.007,267.682-199.423,284.932L255.104,512.171z M255.104,46.553   c-92.753,0.105-167.918,75.27-168.023,168.023c0,71.042,110.132,184.53,168.023,236.473   c57.892-51.964,168.023-165.517,168.023-236.473C423.022,121.823,347.858,46.659,255.104,46.553z"></path>
<path d="M255.104,299.555c-46.932,0-84.978-38.046-84.978-84.978s38.046-84.978,84.978-84.978s84.978,38.046,84.978,84.978   S302.037,299.555,255.104,299.555z M255.104,172.087c-23.466,0-42.489,19.023-42.489,42.489s19.023,42.489,42.489,42.489   s42.489-19.023,42.489-42.489S278.571,172.087,255.104,172.087z"></path>
</symbol>
<symbol id="icon-engagement" viewBox="0 0 24 24">
<path d="m18,0c-3.309,0-6,2.691-6,6s2.691,6,6,6,6-2.691,6-6S21.309,0,18,0Zm2.775,8.87c-.445-1.095-1.514-1.87-2.768-1.87h-.016c-1.254,0-2.325.773-2.769,1.868-.751-.728-1.222-1.742-1.222-2.868,0-2.206,1.794-4,4-4s4,1.794,4,4c0,1.127-.472,2.142-1.225,2.87Zm-1.275-4.37c0,.828-.672,1.5-1.5,1.5s-1.5-.672-1.5-1.5.672-1.5,1.5-1.5,1.5.672,1.5,1.5Zm-3.851,9.735c-.944-.945-2.592-.945-3.535,0l-1.439,1.439s0,0,0,0,0,0,0,0l-1.732,1.733c-.672.673-1.746.75-2.389.168-.344-.31-.54-.733-.552-1.192-.012-.46.161-.894.486-1.219l1.838-1.838s.001,0,.001,0,0-.001,0-.001l1.438-1.438c.975-.975.975-2.561,0-3.535l-.676-.677c-.944-.945-2.592-.945-3.536,0l-3.322,3.322c-2.97,2.97-2.97,7.803,0,10.772,1.485,1.485,3.436,2.228,5.386,2.228s3.901-.742,5.386-2.228l1.882-1.882s0,0,0,0,0,0,0,0l1.438-1.439c.975-.975.975-2.561,0-3.535l-.677-.677Zm-1.768,1.268c.077,0,.226.02.353.146l.677.677c.195.195.195.512,0,.707l-.732.732-1.383-1.383.733-.733c.127-.128.275-.146.353-.146Zm-6.561-6.561c.077,0,.226.019.353.146l.677.677c.195.195.195.512,0,.707l-.732.732-1.383-1.383.733-.733c.127-.128.276-.146.353-.146Zm-3.676,11.413c-2.19-2.19-2.19-5.754,0-7.944l1.176-1.176,1.383,1.383-1.132,1.132c-.707.707-1.097,1.686-1.071,2.685.027,1.014.457,1.946,1.212,2.627,1.448,1.303,3.705,1.197,5.142-.24l1.026-1.026,1.383,1.383-1.176,1.176c-2.19,2.189-5.755,2.189-7.944,0Z"></path>
</symbol>
<symbol id="icon-experience" viewBox="0 0 24 24">
<path d="M12,16c2.206,0,4-1.794,4-4s-1.794-4-4-4-4,1.794-4,4,1.794,4,4,4Zm0-6c1.103,0,2,.897,2,2s-.897,2-2,2-2-.897-2-2,.897-2,2-2Zm6,13c0,.553-.448,1-1,1s-1-.447-1-1c0-2.206-1.794-4-4-4s-4,1.794-4,4c0,.553-.448,1-1,1s-1-.447-1-1c0-3.309,2.691-6,6-6s6,2.691,6,6ZM5.801,9.519c.216,.589-.523,1.138-1.025,.763l-1.309-.912-1.305,.912c-.498,.374-1.232-.166-1.022-.753l.465-1.456-1.219-.849c-.537-.349-.254-1.261,.388-1.24h1.595l.371-1.421c.168-.738,1.294-.737,1.462,0l.371,1.421h1.585c.64-.021,.922,.885,.387,1.234l-1.221,.853,.476,1.447Zm17.907-2.3l-1.221,.853,.476,1.447c.216,.589-.523,1.138-1.025,.763l-1.309-.912-1.305,.912c-.498,.374-1.231-.167-1.022-.753l.465-1.456-1.219-.849c-.537-.349-.254-1.261,.388-1.24h1.595l.371-1.421c.168-.738,1.294-.737,1.462,0l.371,1.421h1.585c.64-.021,.922,.885,.387,1.234ZM8.648,2.515c.067-.308,.34-.53,.656-.529h1.595l.371-1.421c.168-.738,1.294-.737,1.462,0l.371,1.421h1.585c.64-.021,.922,.885,.387,1.234l-1.221,.853,.476,1.447c.216,.589-.524,1.138-1.025,.763l-1.309-.912-1.305,.912c-.498,.374-1.232-.166-1.022-.753l.465-1.456-1.219-.849c-.228-.159-.334-.441-.268-.71Z"></path>
</symbol>
<symbol id="icon-loading" viewBox="0 0 24 24">
<path d="m13 1v2a1 1 0 0 1 -2 0v-2a1 1 0 0 1 2 0zm-1 19a1 1 0 0 0 -1 1v2a1 1 0 0 0 2 0v-2a1 1 0 0 0 -1-1zm-8-8a1 1 0 0 0 -1-1h-2a1 1 0 0 0 0 2h2a1 1 0 0 0 1-1zm19-1h-2a1 1 0 0 0 0 2h2a1 1 0 0 0 0-2zm-4.982-9.382a1 1 0 0 0 -1.367.364l-1 1.731a1 1 0 0 0 .365 1.366.987.987 0 0 0 .5.135 1 1 0 0 0 .866-.5l1-1.731a1 1 0 0 0 -.364-1.365zm-10.031 17.303a1 1 0 0 0 -1.366.364l-1 1.731a1 1 0 0 0 .364 1.366.989.989 0 0 0 .5.135 1 1 0 0 0 .867-.5l1-1.731a1 1 0 0 0 -.365-1.365zm-3.272-12.3-1.731-1a1 1 0 0 0 -1 1.731l1.731 1a1 1 0 0 0 1-1.731zm17.3 10.03-1.731-1a1 1 0 0 0 -1 1.731l1.731 1a.987.987 0 0 0 .5.135 1 1 0 0 0 .5-1.866zm-14.666-14.669a1 1 0 0 0 -1.731 1l1 1.731a1 1 0 0 0 .866.5.987.987 0 0 0 .5-.135 1 1 0 0 0 .365-1.366zm10.03 17.3a1 1 0 0 0 -1.731 1l1 1.731a1 1 0 0 0 1.731-1zm2.408-10.8a1 1 0 0 0 .5-.134l1.731-1a1 1 0 0 0 -1-1.731l-1.731 1a1 1 0 0 0 .5 1.865zm-16.074 7.166-1.731 1a1 1 0 0 0 .5 1.866.987.987 0 0 0 .5-.135l1.731-1a1 1 0 0 0 -1-1.731z"></path>
</symbol>
<symbol id="icon-warning" viewBox="0 0 24 24">
<path d="M11,13V7c0-.55,.45-1,1-1s1,.45,1,1v6c0,.55-.45,1-1,1s-1-.45-1-1Zm1,2c-.83,0-1.5,.67-1.5,1.5s.67,1.5,1.5,1.5,1.5-.67,1.5-1.5-.67-1.5-1.5-1.5Zm11.58,4.88c-.7,1.35-2.17,2.12-4.01,2.12H4.44c-1.85,0-3.31-.77-4.01-2.12-.71-1.36-.51-3.1,.5-4.56L8.97,2.6c.71-1.02,1.83-1.6,3.03-1.6s2.32,.58,3,1.57l8.08,12.77c1.01,1.46,1.2,3.19,.49,4.54Zm-2.15-3.42s-.02-.02-.02-.04L13.34,3.67c-.29-.41-.79-.67-1.34-.67s-1.05,.26-1.36,.71L2.59,16.42c-.62,.88-.76,1.84-.4,2.53,.35,.68,1.15,1.05,2.24,1.05h15.12c1.09,0,1.89-.37,2.24-1.05,.36-.69,.22-1.65-.37-2.49Z"></path>
</symbol>
<symbol id="icon-arrow-right" viewBox="0 0 24 24">
<path d="M23.12,9.91,19.25,6a1,1,0,0,0-1.42,0h0a1,1,0,0,0,0,1.41L21.39,11H1a1,1,0,0,0-1,1H0a1,1,0,0,0,1,1H21.45l-3.62,3.61a1,1,0,0,0,0,1.42h0a1,1,0,0,0,1.42,0l3.87-3.88A3,3,0,0,0,23.12,9.91Z"></path>
</symbol>
<symbol id="icon-arrow-left" viewBox="0 0 24 24">
<path d="M.88,14.09,4.75,18a1,1,0,0,0,1.42,0h0a1,1,0,0,0,0-1.42L2.61,13H23a1,1,0,0,0,1-1h0a1,1,0,0,0-1-1H2.55L6.17,7.38A1,1,0,0,0,6.17,6h0A1,1,0,0,0,4.75,6L.88,9.85A3,3,0,0,0,.88,14.09Z"></path>
</symbol>
<symbol id="icon-upload-cloud" viewBox="0 0 24 24">
<path d="M17.974,7.146c-.331-.066-.602-.273-.742-.569-1.55-3.271-5.143-5.1-8.734-4.438-3.272,.6-5.837,3.212-6.384,6.501-.162,.971-.15,1.943,.033,2.89,.06,.309-.073,.653-.346,.901-1.145,1.041-1.801,2.524-1.801,4.07,0,3.032,2.467,5.5,5.5,5.5h11c4.136,0,7.5-3.364,7.5-7.5,0-3.565-2.534-6.658-6.026-7.354Zm-1.474,12.854H5.5c-1.93,0-3.5-1.57-3.5-3.5,0-.983,.418-1.928,1.146-2.59,.786-.715,1.155-1.773,.963-2.763-.138-.712-.146-1.445-.024-2.181,.403-2.422,2.365-4.421,4.771-4.862,.385-.07,.768-.104,1.146-.104,2.312,0,4.405,1.289,5.422,3.434,.413,.872,1.2,1.482,2.158,1.673,2.56,.511,4.417,2.779,4.417,5.394,0,3.032-2.468,5.5-5.5,5.5Zm-1.379-7.707c.391,.391,.391,1.023,0,1.414-.195,.195-.451,.293-.707,.293s-.512-.098-.707-.293l-1.707-1.707v5c0,.553-.448,1-1,1s-1-.447-1-1v-5l-1.707,1.707c-.391,.391-1.023,.391-1.414,0s-.391-1.023,0-1.414l2.707-2.707c.386-.386,.893-.58,1.4-.583l.014-.003,.014,.003c.508,.003,1.014,.197,1.4,.583l2.707,2.707Z"></path>
</symbol>
<symbol id="icon-smile" viewBox="0 0 24 24">
<path d="M10,12a1,1,0,0,1-1-1c0-1.054-.68-2-1-2s-1,.946-1,2a1,1,0,0,1-2,0C5,9.108,6.232,7,8,7s3,2.108,3,4A1,1,0,0,1,10,12Zm9-1c0-1.892-1.232-4-3-4s-3,2.108-3,4a1,1,0,0,0,2,0c0-1.054.68-2,1-2s1,.946,1,2a1,1,0,0,0,2,0Zm5,1A12.013,12.013,0,0,0,12,0C-3.9.6-3.893,23.4,12,24A12.013,12.013,0,0,0,24,12Zm-2,0A10.011,10.011,0,0,1,12,22C-1.249,21.5-1.244,2.5,12,2A10.011,10.011,0,0,1,22,12Zm-4.334,3.746a1,1,0,0,0-1.33-1.493,6.36,6.36,0,0,1-8.67,0,1,1,0,0,0-1.332,1.492A9.454,9.454,0,0,0,12,18,9.454,9.454,0,0,0,17.666,15.746Z"></path>
</symbol>
<symbol id="icon-login" viewBox="0 0 512 512">
	<path d="M170.699,448H72.757c-4.814-0.012-8.714-3.911-8.725-8.725V72.725c0.012-4.814,3.911-8.714,8.725-8.725h97.941   c17.673,0,32-14.327,32-32s-14.327-32-32-32H72.757C32.612,0.047,0.079,32.58,0.032,72.725v366.549   C0.079,479.42,32.612,511.953,72.757,512h97.941c17.673,0,32-14.327,32-32S188.372,448,170.699,448z"/>
	<path d="M480.032,224l-290.987,0.576l73.941-73.941c12.501-12.495,12.506-32.758,0.011-45.259s-32.758-12.506-45.259-0.011   l-82.752,82.752c-37.491,37.49-37.491,98.274-0.001,135.764c0,0,0.001,0.001,0.001,0.001l82.752,82.752   c12.501,12.495,32.764,12.49,45.259-0.011s12.49-32.764-0.011-45.259l-72.811-72.789L480.032,288   c17.673-0.035,31.971-14.391,31.936-32.064S497.577,223.965,479.904,224H480.032z"/>
</symbol>
<symbol id="icon-signup" viewBox="0 0 24 24">
<path d="M23,11H21V9a1,1,0,0,0-2,0v2H17a1,1,0,0,0,0,2h2v2a1,1,0,0,0,2,0V13h2a1,1,0,0,0,0-2Z"/>
<path d="M9,12A6,6,0,1,0,3,6,6.006,6.006,0,0,0,9,12ZM9,2A4,4,0,1,1,5,6,4,4,0,0,1,9,2Z"/>
<path d="M9,14a9.01,9.01,0,0,0-9,9,1,1,0,0,0,2,0,7,7,0,0,1,14,0,1,1,0,0,0,2,0A9.01,9.01,0,0,0,9,14Z"/>
</symbol>
<symbol id="icon-logout" viewBox="0 0 24 24">
<path d="M11.476,15a1,1,0,0,0-1,1v3a3,3,0,0,1-3,3H5a3,3,0,0,1-3-3V5A3,3,0,0,1,5,2H7.476a3,3,0,0,1,3,3V8a1,1,0,0,0,2,0V5a5.006,5.006,0,0,0-5-5H5A5.006,5.006,0,0,0,0,5V19a5.006,5.006,0,0,0,5,5H7.476a5.006,5.006,0,0,0,5-5V16A1,1,0,0,0,11.476,15Z"/>
<path d="M22.867,9.879,18.281,5.293a1,1,0,1,0-1.414,1.414l4.262,4.263L6,11a1,1,0,0,0,0,2H6l15.188-.031-4.323,4.324a1,1,0,1,0,1.414,1.414l4.586-4.586A3,3,0,0,0,22.867,9.879Z"/>
</symbol>
<symbol id="icon-apply" viewBox="0 0 24 24">
<path d="m17,9v4c0,.553-.448,1-1,1s-1-.447-1-1v-3.56l-5.294,5.269c-.195.194-.451.291-.706.291-.257,0-.513-.099-.709-.295-.39-.392-.388-1.024.003-1.414l5.317-5.291h-3.611c-.552,0-1-.447-1-1s.448-1,1-1h4c1.654,0,3,1.346,3,3Zm7-5v12c0,2.206-1.794,4-4,4h-2.852l-3.847,3.18c-.362.322-.825.485-1.292.485-.476,0-.956-.169-1.338-.509l-3.748-3.156h-2.923c-2.206,0-4-1.794-4-4V4C0,1.794,1.794,0,4,0h16c2.206,0,4,1.794,4,4Zm-2,0c0-1.103-.897-2-2-2H4c-1.103,0-2,.897-2,2v12c0,1.103.897,2,2,2h3.289c.236,0,.464.083.644.235l4.047,3.409,4.172-3.415c.179-.148.405-.229.637-.229h3.211c1.103,0,2-.897,2-2V4Z"/>
</symbol>
<symbol id="icon-file-upload" viewBox="0 0 24 24">
<path d="m19.95,5.536l-3.485-3.485c-1.322-1.322-3.08-2.05-4.95-2.05h-4.515C4.243,0,2,2.243,2,5v14c0,2.757,2.243,5,5,5h10c2.757,0,5-2.243,5-5v-8.515c0-1.87-.728-3.627-2.05-4.95Zm-1.414,1.414c.318.318.587.671.805,1.05h-4.341c-.551,0-1-.449-1-1V2.659c.379.218.733.487,1.05.805l3.485,3.485Zm1.464,12.05c0,1.654-1.346,3-3,3H7c-1.654,0-3-1.346-3-3V5c0-1.654,1.346-3,3-3h4.515c.163,0,.325.008.485.023v4.977c0,1.654,1.346,3,3,3h4.977c.015.16.023.322.023.485v8.515Zm-4.293-4.519c.391.391.391,1.023,0,1.414-.195.195-.451.293-.707.293s-.512-.098-.707-.293l-1.293-1.293v4.398c0,.552-.448,1-1,1s-1-.448-1-1v-4.398l-1.293,1.293c-.391.391-1.023.391-1.414,0s-.391-1.023,0-1.414l1.614-1.614c1.154-1.154,3.032-1.154,4.187,0l1.614,1.614Z"/>
</symbol>
</defs>
</svg>
